/* XPM */
static char *_d7ea5d035254f2ad119dd117a3656d654wZYfeqozUZQSBa[] = {
/* columns rows colors chars-per-pixel */
"64 64 202 2 ",
"   c #362B0C",
".  c #2E2D0A",
"X  c #3D3836",
"o  c #40190E",
"O  c #78161D",
"+  c #452C0F",
"@  c #4D2F1D",
"#  c #4B3510",
"$  c #58391A",
"%  c #7D241A",
"&  c #7B3C1A",
"*  c #6E2317",
"=  c #4A3628",
"-  c #5A3621",
";  c #593928",
":  c #543D34",
">  c #53312F",
",  c #633C24",
"<  c #683F27",
"1  c #713229",
"2  c #534A13",
"3  c #585514",
"4  c #654216",
"5  c #6A461C",
"6  c #724C19",
"7  c #724418",
"8  c #7D521C",
"9  c #76581A",
"0  c #605E16",
"q  c #6D6B19",
"w  c #676417",
"e  c #7A651B",
"r  c #7D791C",
"t  c #5E4429",
"y  c #5A453A",
"u  c #6B4424",
"i  c #694528",
"p  c #764D23",
"a  c #7D4E22",
"s  c #73452A",
"d  c #77482C",
"f  c #7A542B",
"g  c #634B3C",
"h  c #684C33",
"j  c #7B5731",
"k  c #7A5838",
"l  c #6E5239",
"z  c #5A4A43",
"x  c #594E54",
"c  c #5B535D",
"v  c #5C5557",
"b  c #5D5446",
"n  c #634A44",
"m  c #63534D",
"M  c #695445",
"N  c #755A49",
"B  c #6B5D5D",
"V  c #645657",
"C  c #6F4E53",
"Z  c #5D615F",
"A  c #796256",
"S  c #5D5662",
"D  c #645B66",
"F  c #5F6667",
"G  c #6E6163",
"H  c #69616C",
"J  c #626867",
"K  c #796A6C",
"L  c #776767",
"P  c #6B6471",
"I  c #746A74",
"U  c #716B7B",
"Y  c #756B79",
"T  c #78767E",
"R  c #87161C",
"E  c #90191E",
"W  c #81231B",
"Q  c #852A1C",
"!  c #87381C",
"~  c #9C1720",
"^  c #801921",
"/  c #AF1924",
"(  c #A51722",
")  c #812C33",
"_  c #89481D",
"`  c #84541D",
"'  c #8E5B1F",
"]  c #89571D",
"[  c #925D1F",
"{  c #857A1E",
"}  c #856F1D",
"|  c #825424",
" . c #8C5B24",
".. c #875929",
"X. c #945E22",
"o. c #9D5321",
"O. c #845E39",
"+. c #8E4C2D",
"@. c #A45E35",
"#. c #966123",
"$. c #9C6322",
"%. c #99652B",
"&. c #947620",
"*. c #8A6138",
"=. c #996A38",
"-. c #A16623",
";. c #A56923",
":. c #AC6D25",
">. c #A96E2B",
",. c #B37227",
"<. c #B87527",
"1. c #B2722A",
"2. c #BA7628",
"3. c #BD7929",
"4. c #AC6F2D",
"5. c #C37D2A",
"6. c #C87F2B",
"7. c #893E45",
"8. c #954A44",
"9. c #815359",
"0. c #B95B55",
"q. c #846649",
"w. c #9A6E42",
"e. c #886A53",
"r. c #9A7351",
"t. c #A87843",
"y. c #8D7663",
"u. c #9C7E61",
"i. c #82747B",
"p. c #89871F",
"a. c #959221",
"s. c #989522",
"d. c #AE8F30",
"f. c #BDBA2B",
"g. c #B0AD28",
"h. c #CC822C",
"j. c #D2862D",
"k. c #D7892E",
"l. c #C0BD2B",
"z. c #C9C62D",
"x. c #C7C42D",
"c. c #AF8658",
"v. c #B98346",
"b. c #948169",
"n. c #7B7383",
"m. c #7A7786",
"M. c #827A8D",
"N. c #837A87",
"B. c #857E92",
"V. c #798386",
"C. c #8A8296",
"Z. c #8D859A",
"A. c #868593",
"S. c #91899E",
"D. c #919B9E",
"F. c #8F9C9F",
"G. c #948CA2",
"H. c #9790A5",
"J. c #9991A6",
"K. c #939EA1",
"L. c #9C95A9",
"P. c #9F98AC",
"I. c #A29BAE",
"U. c #A59EB0",
"Y. c #95A1A4",
"T. c #99A6AA",
"R. c #9AA8AC",
"E. c #A7A0B2",
"W. c #AAA4B5",
"Q. c #ADA7B8",
"!. c #AEA8B9",
"~. c #B2ADBC",
"^. c #B6B1BF",
"/. c #BFACA0",
"(. c #C3AC90",
"). c #CFBDA3",
"_. c #B7B1C0",
"`. c #BAB5C3",
"'. c #BEB9C6",
"]. c #BFBBC8",
"[. c #C2BDC9",
"{. c #C0BBC7",
"}. c #C6C2CD",
"|. c #C8C4CF",
" X c #CAC6D1",
".X c #CDC9D3",
"XX c #D1CDD6",
"oX c #D2CFD8",
"OX c #D5D2DB",
"+X c #D9D6DE",
"@X c #DBD8DF",
"#X c #DDDBE1",
"$X c #E1DEE5",
"%X c #E3E1E7",
"&X c #E6E4E9",
"*X c #E8E7EB",
"=X c #EBEAEE",
"-X c #EFEDF1",
";X c #F0EFF2",
":X c #F4F3F5",
">X c #F7F6F8",
",X c #FCFCFD",
/* pixels */
",X,X,X,X,X,X,X>X:X;X*X&X&X%X&X%X$X=X=X-X;X:X,X,X>X,X>X>X:X;X=X&X$X$X+X+XOXOXOXOXoX#XoX#X#X$X*X=X-X;X>X>X,X,X,X,X,X,X,X,X,X,X,X,X",
",X,X,X,X,X,X:X-X*X%X#X+X+XoXOX+XOX$X$X#X$X*X$X-X=X$X$X$X$XoX(.(.[.[.[.{.{.{.{.{.{.{.{.'.[.[.XXoX#X$X*X*X;X>X:X>X>X;X:X:X:X>X,X,X",
",X,X,X,X>X:X=X$X+XoX X}.|.[.[.}.[. X X X.XoXoX.XXX.X X X{.t.k.k.c.~.Q.Q.E.W.E.U.U.U.U.U.W.W._.`.[. XXXOX$X$X*X=X;X;X;X;X;X;X>X>X",
",X,X,X,X;X&X#XoX}.[.'._.~.~.~.~._._.~._._.~._._.Q.~.~.W.u.k.k.k.k.t.J.L.L.L.L.L.H.L.L.J.L.I.I.I.Q.!._.[.[..XOX$X$X&X&X*X=X=X;X:X",
",X,X>X-X&X@X.X[._.!.W.U.U.U.U.U.U.U.U.I.I.I.I.I.I.L.I.Z.5.k.k.k.k.k.r.G.G.G.H.G.G.G.G.G.G.H.G.H.L.I.U.!._._.{.[.XXoX#X#X$X$X*X=X",
",X,X:X&XOX X`.Q.E.P.P.L.G.N.J.J.L.L.J.L.J.J.G.G.G.G.G.y.k.k.k.k.k.j.j.e.G.G.G.G.G.G.G.G.G.G.G.G.J.H.J.I.U.U.U._.`.[.[.XXoX+X$X$X",
",X>X=X+X}._.Q.U.P.L.H.S.=.h.w.Z.G.G.G.G.G.G.G.G.G.G.G.w.k.k.k.k.k.k.k.j.9.G.G.B.G.G.G.G.G.G.G.G.G.G.H.J.L.I.I.I.W._._.{.[..XoX#X",
",X:X%X.X`.Q.U.L.H.H.H.e.k.5.k.=.S.G.G.G.G.G.S.G.G.G.G.:.k.k.k.k.k.k.k.k.4.M.H.J.G.G.G.G.G.G.S.G.G.G.J.G.J.H.J.I.U.U.Q._.{.[..XoX",
",X=X+X{.Q.I.L.J.G.G.B.1.k.2.j.k.e.G.G.G.S.G.G.G.G.S.M.h.k.k.k.k.k.k.k.k.k.*.G.G.G.G.S.G.G.S.G.G.G.G.G.J.G.H.H.L.L.I.U.W._.`.[..X",
">X&X X`.U.I.J.J.G.G.A k.k.k.:.k.6.i.G.G.G.G.G.S.G.G.n.k.k.k.k.k.k.k.k.k.j.j.L G.G.G.G.G.G.G.G.G.G.G.G.G.G.G.G.G.J.L.P.U.W._.`. X",
";X$X[.~.I.J.J.G.G.S...k.k.k.;.k.k.=.S.G.G.G.G.G.G.G.Y k.k.k.k.k.k.k.k.k.k.k.%.C.G.G.G.G.G.G.G.G.G.G.G.G.G.G.G.G.G.H.L.I.U.!._.{.",
";X+X{.W.I.J.G.G.G.n.5.k.k.k.;.k.k.j.K G.G.S.G.G.S.G.n.k.6.5.2.3.j.k.k.k.k.j.j.V G.G.G.S.S.G.G.G.G.G.G.G.G.G.G.G.G.H.H.L.I.U.!.'.",
";X+X`.U.L.G.G.S.G.G k.k.k.k.$.k.k.k.=.S.G.G.G.G.P m : , $ :.5.X.- ,  .o.3.k.k.X.M.G.G.G.G.S.G.S.G.G.G.G.G.G.G.G.G.G.J.H.L.I.W._.",
"-X+X'.U.I.G.G.G.G.9.k.k.k.k.$.j.k.k.6.N.S.B.D > X.j.| s d 7 j.k. .s | k.:.' 6.k.b G.G.G.G.G.G.G.G.G.G.G.G.G.G.G.G.G.G.J.L.I.U._.",
";X+X_.I.J.G.G.S.G.N k.k.k.d.#.h.k.k.k.e.A -.a d < <.k.X.< d ` k.k.| , j.k.j.[ ;. .Z.G.G.G.G.G.G.G.G.G.G.G.G.G.G.G.G.G.J.J.L.I.W.",
"*XoX_.I.J.J.G.G.S.j 6.k.k.c.y.j.k.k.k.5.k.k.j.a d | k.k.;., , 3.k.k.-.k.k.k.k.:.| G S.G.G.G.G.G.G.G.G.G.G.G.G.G.G.J.G.G.G.H.L.U.",
"-XXX~.I.J.G.G.G.G.f h.k.h.(.b.k.k.k.k.k.k.k.k.j.6 , k.k.k.:., ] k.k.k.k.k.k.k.k.,.y S.H.J.G.G.H.G.G.G.G.G.G.G.G.G.G.G.G.G.G.J.I.",
"*XXX~.I.G.G.G.G.G.p j.j.v.(.b.k.k.k.k.k.k.k.k.k.k.-.k.k.k.k.,.$.k.k.k.k.k.k.k.k.j.:.B J.J.L.L.J.H.J.J.G.G.S.G.G.G.G.G.G.G.G.J.H.",
"&X.X~.I.G.G.G.G.G.f 6.k.t.).t.j.k.k.k.k.k.k.k.k.k.k.k.k.k.k.k.k.k.k.k.k.k.k.k.k.j.k.;.D L.I.P.L.L.J.G.G.G.G.G.G.Z.G.G.G.G.G.G.H.",
"$X|.~.I.J.G.G.G.G...<.k.c.b.h.j.k.k.k.k.k.k.k.k.k.k.k.k.k.k.k.k.k.k.k.k.k.k.k.k.k.k.j.,.g J.P.P.J.L.G.J.G.G.G.G.G.G.G.G.G.G.J.H.",
"oX[.!.I.U.E.U.I.L...1.k.,.;.k.k.k.k.k.k.k.k.k.k.k.k.k.k.k.k.k.k.k.k.k.k.k.k.k.j.k.k.j.;.j.G L.L.J.H.G.G.G.G.G.S.G.G.G.G.G.G.G.G.",
".X'.Q.{.~.G.G.S.S.O.:.j.#.k.k.k.k.k.k.k.k.k.k.k.k.k.k.k.k.k.k.k.k.k.k.k.k.k.j.,.8   w &.j.B J.J.L.H.J.G.G.G.G.G.G.G.Z.G.G.G.G.G.",
"|.`.[.^.L.G.G.G.G.N -.k.-.k.k.k.k.k.k.k.k.j.k.k.k.k.k.k.k.k.k.k.k.k.k.k.:.9 r a.l.. p.a.;.I L.J.H.J.G.G.G.G.G.G.G.G.G.G.G.G.G.G.",
"[.~.XXI.J.J.G.G.S.A ,.[ h.k.k.k.k.k.k.k.k.j.h.:.[ 9 6 9 e ;.k.k.k.k.k.k.k.} z.z.z.3 { s.-.m J.G.J.G.G.G.G.G.G.G.Z.G.G.G.G.G.G.J.",
"`.Q.|.I.J.G.G.G.G.D j.4 k.k.k.k.k.,.8 $ + . 0 { s.x.. r z.&.k.k.k.k.k.k.k.8 z.z.z.p.s.q ,.j G.J.J.G.G.G.G.G.J.B.G.G.G.G.G.G.G.G.",
"^.W.W.'.J.H.G.G.G.x :.4 k.k.k.k.;.6 $.h.k.} z.z.z.z.q q z.` k.k.k.k.k.k.k.,.p.z.z.z.g.# k. .G.J.G.G.G.G.G.G.G.G.G.G.G.G.S.G.G.G.",
"~.W.I.E.^.G.G.G.G.e.h.+ k.k.k.k.k.k.k.k.k.e z.z.z.z.l.s.l.6 k.k.k.k.k.k.k.k.6 q p.q # 6.k.X.S.G.G.G.G.G.G.G.G.G.G.G.Z.G.G.G.G.G.",
"^.W.I.L.L.I.P.J.G.N. .4 k.k.k.k.k.k.k.k.k.6 g.z.z.z.z.f.2 5.k.k.k.k.k.h.k.k.k.<.o.,.k.k.k. .S.G.G.G.G.J.J.B.G.H.G.G.G.G.G.G.G.G.",
"`.!.I.I.J.G.J.G.G.T h h.k.k.k.k.k.k.k.k.k.j.4 3 w w 2 $ 5.k.k.k.5.w.1 8.X.k.k.k.6.,.6.k.6.k G.J.G.G.G.G.S.G.G.H.G.G.G.G.G.G.G.G.",
"`.~.I.L.J.J.G.G.G.G.N k.h.k.k.k.k.k.k.k.k.k.k.j.d.h.k.k.k.k.k.k.<.+.0.8.2.j.3.;.:.,.:.,.6.D G.B.G.G.G.G.G.G.G.B.S.G.S.G.S.G.G.G.",
"[.~.E.I.J.G.G.G.G.S...k.5.j.k.k.k.k.k.k.k.k.k.h.,.:.:.,.<.k.k.k.k.6.$.:.j.j.h.5.,.6.k.k.4.M.G.G.J.G.G.G.S.G.S.G.G.G.G.S.G.G.G.G.",
"}.^.E.I.L.J.G.G.G.I 6.k.X.h.k.k.k.k.k.k.k.k.k.j.k.k.<.3.6.<.k.k.k.k.k.,.k.j.<.;.;.,.5.6.n G.G.G.G.G.G.G.G.G.G.G.S.G.G.G.G.G.G.G.",
" X`.Q.I.L.J.G.G.C.O.k.k.6.k.k.k.k.k.k.k.k.k.k.5.,.,.j.h.5.k.k.k.k.k.k.` k.k.k.k.k.k.k.| B.G.G.G.J.H.G.G.G.S.G.S.G.G.S.G.G.G.G.G.",
".X`.Q.U.L.J.H.G.C.g q.1.j.k.k.k.k.k.k.k.k.k.k.6.k.6.,.5.k.k.k.k.k.k.#.1.] j.k.k.k.k.#.U G.G.G.G.G.G.G.G.G.G.G.G.G.S.G.G.G.S.G.H.",
"oX'.Q.U.L.J.G.G.S.B.=.k.3.k.k.k.k.k.k.k.k.k.k.k.5.3.k.k.k.k.k.k.k.X.-.k.h.` ,.k.k.X.P G.G.G.G.J.H.G.G.G.G.S.S.G.G.G.G.G.G.G.G.H.",
"OX[._.U.P.H.H.G.S.C.H Y r.k.k.k.k.k.k.k.k.k.k.k.j.k.k.k.k.k.k.3.& :.k.k.k.k.,.k.s U G.G.G.G.G.G.G.J.G.G.G.G.G.G.G.S.G.S.G.G.G.H.",
"#X[.`.W.I.J.G.G.S.G.G.S.>.j.k.6.k.k.k.k.k.k.k.k.k.k.k.k.k.k.6.' j.k.k.k.k.k.:.y B.G.G.G.G.G.G.G.J.G.G.G.G.G.S.G.G.S.G.G.G.G.G.H.",
"#X.X_.Q.U.J.H.G.G.G.G.I +.k l = ' k.k.k.k.k.k.k.k.k.k.k.k.k.j.k.k.k.k.k.:.t H S.G.G.G.G.G.G.G.G.G.J.J.G.G.G.G.G.G.G.G.G.G.G.H.H.",
"#X X`.Q.U.L.J.G.G.S.G.G.G.G.G.G.B.N -.k.k.k.k.k.k.k.k.k.k.k.k.k.k.k.j.$.#.1.I G.G.G.G.G.G.G.G.J.J.G.G.G.G.G.G.G.G.S.G.S.G.G.G.L.",
"$XXX'.!.U.P.G.G.G.G.G.G.G.G.G.G.G.N.#.h.k.k.k.k.k.k.k.k.k.k.k.k.k.k.k.k.k.j.M G.G.G.G.G.G.G.G.G.G.G.G.G.G.G.G.G.G.G.G.G.G.G.H.L.",
"&XoX[._.U.P.H.G.G.G.G.B.G.G.G.B.G.D ..j.k.k.k.k.k.k.k.k.k.k.k.k.k.k.k.k.k...Z.G.G.S.G.G.G.G.G.G.H.G.G.G.G.G.G.G.S.G.G.G.G.G.H.L.",
"*XOX X_.E.P.J.G.G.G.G.G.G.G.G.G.H.m.2.k.k.k.k.k.k.k.k.k.k.k.5.k.k.k.k.k.6.c G.G.G.G.G.G.G.G.G.G.G.G.G.G.G.G.S.G.G.G.G.S.G.G.H.P.",
"-X#X.X`.W.I.J.H.G.G.G.G.G.G.G.G.G.A 5.k.k.k.k.k.k.k.k.k.j.k.3.k.k.k.k.k.| B.G.G.G.G.S.G.G.G.G.G.G.G.G.V > D G.G.S.G.S.G.G.G.H.P.",
"-X$X.X].W.I.J.H.G.G.G.G.G.G.G.G.Z.i * o.k.k.k.k.k.k.k.k.$.$.6.j.k.k.k.h.o B.G.G.G.G.G.G.G.G.G.G.H.G.S., d ; M.G.G.G.G.G.G.H.H.P.",
";X$XoX'.Q.I.H.H.G.G.G.G.G.G.G.S.G.m.^ / Q -.k.k.j.k.k.h.;.:.5.k.k.k.2.* R m.G.G.G.G.G.G.G.G.G.G.G.G.G.C d d c G.S.G.G.G.G.H.H.P.",
";X*XoX[.!.I.L.G.G.G.G.G.B.G.G.G.G.U ( / / ( W _ :.j.k.k.k.k.j.k.3._ R / ~ U G.G.G.G.G.G.G.G.G.J.G.H.N.y @ - : n.G.G.S.G.G.H.J.U.",
";X&XoX[.!.I.J.H.G.G.G.G.G.G.G.G.G.C / / / / / / ( O W ! ! & Q % R / / / / x G.G.G.G.G.G.G.G.G.G.G.n.; d d - > > G.G.G.G.H.H.L.U.",
";X$XoX[.~.U.J.H.G.G.G.G.G.G.G.G.G.C W / / / / / / / / / / O E / / / / / ~ D G.G.G.G.G.G.G.G.G.G.G.x d d d - < @ B.S.G.G.H.H.L.U.",
";X$XoX'.!.I.L.J.G.G.Z.G.G.G.G.G.Z...j.X.% ~ / / / / / / / 9.> / / ( ( % ,.h S.G.G.G.G.G.G.G.G.G.G.H i s d s , @ U G.G.G.G.H.L.U.",
";X&XXX`.U.I.H.G.G.G.G.G.G.G.S.G.B j.k.k.j.:._ W R ( / / / 7.n / ~ o.& j.k.3.V G.G.G.G.G.G.G.G.G.H.G.= > d d , - D G.G.G.G.H.L.U.",
":X$XXX`.U.I.H.G.G.G.G.G.S.G.G.B.#.k.k.k.k.k.k.k.h.-._ ! R 1 m ` 1.2.5.k.k.k.| B.G.G.G.G.G.G.G.G.G.G.G.n d d u , S G.S.G.H.H.P.U.",
":X$X.X_.U.L.H.J.G.G.G.G.G.G.G.n k.k.k.k.k.k.k.k.j.k.k.k.h.X M k.k.:.k.k.k.k.k.n G.G.G.G.G.G.G.G.G.G.G.n d d d d c S.G.G.G.H.P.U.",
":X$X.X_.U.L.H.G.G.G.G.G.G.G.n.X.k.k.k.k.k.k.k.k.k.k.k.k.h.t 5 k.k.;.k.k.k.k.k.X.B.G.G.G.G.G.G.G.G.G.G.M d d s d c G.G.G.G.H.L.U.",
";X#X[._.U.L.H.H.G.G.G.G.G.G.z k.k.k.k.k.k.k.k.k.k.k.k.k.d.i [ k.1.-.k.k.k.k.k.6.D G.G.G.G.G.G.G.G.G.G.w.+.d +.4.V G.G.G.G.H.L.U.",
"*X#X[.!.U.L.J.G.G.G.G.G.G.n.X.k.k.k.k.k.k.k.k.k.k.k.j.q.K.J T *.-.-.k.k.k.k.k.k.k G.G.G.G.G.G.G.G.G.G.=.j.k.k.k.B S.G.G.G.H.H.U.",
"*X#X[._.W.P.H.G.G.G.G.G.G.z k.k.k.k.k.k.k.k.k.k.k.k.| T.R.A.T.V.;.k.k.k.k.k.k.k.1.U G.G.S.G.G.G.G.G.S.:.k.k.k.k.D G.G.G.G.G.H.P.",
"=X+X}._.W.I.J.J.G.G.G.G.B.a k.5.k.k.k.k.k.k.k.k.k.k.m K.F.Y.Y.Y.5 k.k.k.k.k.k.k.k.l G.G.G.G.S.G.G.G.M.6.k.k.k.k.I G.G.G.G.H.L.I.",
"*X+X X`.W.U.L.J.G.G.G.G.S 5.k.:.k.k.k.k.k.k.k.k.k.k.v K.K.F.K.R.u k.k.k.k.k.k.k.k.3.U G.G.G.G.G.G.G.K k.k.k.k.6.n.G.G.G.G.H.H.L.",
"-X#X.X'.~.E.P.J.G.G.G.G.h k.k.;.k.k.k.k.k.k.k.k.k.k.2 F.T.F.T.T ;.k.k.k.k.k.k.k.k.k...Z.G.G.G.G.G.G.e.k.k.k.k.5.B.G.G.G.G.G.H.I.",
":X%X+X}.`.Q.U.L.L.G.G.B.` k.k.$.j.k.k.k.k.k.k.k.k.k.h.t Z V.Z  .j.j.k.k.k.k.k.k.k.k.k.M G.G.G.G.G.G.%.k.k.k.k.%.G.G.G.G.J.J.L.I.",
">X-X$XoX[._.W.I.L.H.G.c 5.k.k.:.,.j.k.k.k.k.k.k.k.k.k.k.h.:.h.k.k.k.k.k.k.k.k.k.k.k.k.2.H G.G.G.G.m.5.k.k.k.k.q.G.G.G.G.J.H.I.I.",
">X:X*X#X X`.Q.U.L.J.J.y k.k.k.k.] k.k.k.k.k.k.k.k.k.k.k.k.k.j.j.k.k.k.k.k.k.k.k.k.k.k.k.X.m.G.G.G.A k.k.k.k.k.L G.G.J.J.J.J.U.U.",
",X>X-X&XOX[.~.W.I.L.G.6 k.k.k.k.8 j.k.k.k.k.k.k.k.k.k.k.k.k.k.k.k.k.k.k.k.k.k.k.k.k.k.k.k.j Z.G.G...k.k.k.k.1.B.H.H.L.H.L.I.U._.",
",X,X>X=X#X.X[.^.Q.E.n.-.k.k.k.k.3.#.k.k.k.k.k.k.k.k.k.k.k.k.k.k.h.2.k.k.k.k.k.k.k.k.k.k.k.k.M P.N.5.k.k.k.k.q.I.U.U.U.U.U.!._.`."
};
