/* XPM */
static char *_fffd6d1a27e43ccc0c1da201675caf9bqVCM76YfezwPluz[] = {
/* columns rows colors chars-per-pixel */
"32 32 171 2 ",
"   c #5B3925",
".  c #683F26",
"X  c #755319",
"o  c #636116",
"O  c #7E771C",
"+  c #6D442A",
"@  c #73452A",
"#  c #77482C",
"$  c #784A27",
"%  c #64473C",
"&  c #735B55",
"*  c #7F685C",
"=  c #6E626B",
"-  c #77666D",
";  c #7C776B",
":  c #7A6A71",
">  c #786F7B",
",  c #7A777C",
"<  c #8B261D",
"1  c #9F1823",
"2  c #A31921",
"3  c #AF1924",
"4  c #86262E",
"5  c #9A2620",
"6  c #973220",
"7  c #9A3139",
"8  c #A02F21",
"9  c #A42622",
"0  c #87561D",
"q  c #90731F",
"w  c #83402C",
"e  c #994020",
"r  c #8F5927",
"t  c #875428",
"y  c #89542C",
"u  c #925C23",
"i  c #A74C23",
"p  c #B05E25",
"a  c #976721",
"s  c #9D6424",
"d  c #9B6C22",
"f  c #98652B",
"g  c #937120",
"h  c #9C7222",
"j  c #896138",
"k  c #9A6B3A",
"l  c #A36A25",
"z  c #AA6D25",
"x  c #A56928",
"c  c #B16726",
"v  c #A47124",
"b  c #AF7025",
"n  c #AE702B",
"m  c #B37327",
"M  c #B5752C",
"N  c #BB7628",
"B  c #BE792A",
"V  c #B57727",
"C  c #A26E36",
"Z  c #A96431",
"A  c #AE7737",
"S  c #BC7B32",
"D  c #B37838",
"F  c #B17637",
"G  c #C37D2A",
"H  c #C87F2B",
"J  c #C27F33",
"K  c #813540",
"L  c #974B43",
"P  c #844351",
"I  c #8A6544",
"U  c #8C694C",
"Y  c #84674A",
"T  c #946D4A",
"R  c #957053",
"E  c #98775F",
"W  c #9A7A51",
"Q  c #886C59",
"!  c #A57647",
"~  c #A67B54",
"^  c #A47B59",
"/  c #A87C55",
"(  c #876F65",
")  c #806D6B",
"_  c #8D7264",
"`  c #86726E",
"'  c #8E776E",
"]  c #9C7B63",
"[  c #9D7E6A",
"{  c #977C6B",
"}  c #826C7A",
"|  c #8F7870",
" . c #83767F",
".. c #877374",
"X. c #84821E",
"o. c #8D8B20",
"O. c #9D9A23",
"+. c #A89925",
"@. c #B9B629",
"#. c #B9B72A",
"$. c #A8A526",
"%. c #CC822C",
"&. c #D2862D",
"*. c #D7892E",
"=. c #C88130",
"-. c #C68438",
";. c #C6C32D",
":. c #B5844A",
">. c #828076",
",. c #B68B61",
"<. c #B09068",
"1. c #BB9066",
"2. c #C09765",
"3. c #776F80",
"4. c #7E7582",
"5. c #7E778A",
"6. c #807787",
"7. c #847B8B",
"8. c #8C7F89",
"9. c #837883",
"0. c #867D90",
"q. c #7F898C",
"w. c #8E838E",
"e. c #90838F",
"r. c #8B8295",
"t. c #8E869A",
"y. c #91899E",
"u. c #948892",
"i. c #859093",
"p. c #948CA2",
"a. c #9790A5",
"s. c #9991A6",
"d. c #9D95A9",
"f. c #999BA6",
"g. c #A29BAE",
"h. c #A59EB1",
"j. c #95A1A5",
"k. c #A7A1B2",
"l. c #AAA4B5",
"z. c #ADA7B8",
"x. c #AFA9BA",
"c. c #B2ADBC",
"v. c #B6B0BF",
"b. c #B7B2C1",
"n. c #BBB5C3",
"m. c #BEB9C7",
"M. c #C2BDC9",
"N. c #C6C2CD",
"B. c #C8C4CF",
"V. c #D5C8C1",
"C. c #CAC6D1",
"Z. c #CDC9D3",
"A. c #D2CFD8",
"S. c #D0CDD6",
"D. c #D5D2DA",
"F. c #DBD8DF",
"G. c #DEDBE2",
"H. c #E1DFE5",
"J. c #E4E2E7",
"K. c #E6E4E9",
"L. c #E8E7EB",
"P. c #EBEAEE",
"I. c #EEEDF1",
"U. c #F0EFF2",
"Y. c #F3F2F5",
"T. c #F7F6F8",
"R. c #F8F7F9",
"E. c #F9F8FA",
"W. c white",
"Q. c #FDFDFD",
"!. c #FDFDFD",
/* pixels */
"W.W.Q.Y.P.J.G.G.H.J.P.Y.U.P.J.V.D.Z.C.C.C.C.S.G.K.U.T.T.T.T.Q.Q.",
"W.W.Y.G.Z.M.n.n.m.M.M.N.M.n.1.*.,.g.g.g.g.g.h.l.b.C.A.H.P.P.U.Y.",
"Q.I.D.m.l.h.a.d.d.d.d.d.s.u.&.*.*.^ p.p.p.p.p.p.d.h.z.b.C.A.G.H.",
"T.G.n.h.s.e.B ~ p.p.p.p.p.[ *.*.*.&.' p.p.p.p.p.p.a.d.g.l.b.M.A.",
"I.C.h.d.p.~ %.%.] p.p.p.p./ *.*.*.*.J r.y.p.p.y.p.p.a.s.d.h.c.M.",
"K.b.d.p.t.G *.B =.r.p.p.p./ %.%.&.*.*.R p.y.p.p.p.p.p.p.a.d.h.n.",
"J.c.s.p. .*.*.V *.] y.: I + $ G @ l m G 7.p.p.p.p.p.p.p.p.a.g.x.",
"G.z.p.p.` &.-.A *.S F r t H $ s B z *.z Y p.p.p.p.p.p.p.p.p.a.g.",
"G.l.p.p.( &.2.:.*.*.*.*.u *.%.u *.*.*.*.x r.a.a.p.p.p.p.p.p.p.d.",
"D.z.p.p._ %.<.-.*.*.*.*.*.*.*.*.*.*.*.*.*.C w.d.d.a.p.p.y.p.p.p.",
"B.x.h.d.' G m *.*.*.*.*.&.*.*.*.*.*.*.H a h ! d.a.p.p.p.p.p.p.p.",
"m.n.s.p...z G *.*.*.&.%.m v V *.*.*.d $.o.o.I s.a.p.p.p.p.p.p.p.",
"c.c.s.p.> u *.*.z 0 X O.#.o +.*.*.*.M @.@.O x p.p.p.p.y.p.p.y.p.",
"c.g.g.s.8.0 *.*.*.*.l ;.;.@.q *.*.*.*.d q c m p.p.p.p.p.p.p.p.p.",
"c.g.s.p.t.k *.*.*.*.*.d q a &.*.Z L G G m G C p.p.p.p.p.p.p.p.p.",
"n.g.s.p.r.B G *.*.*.*.*.G N G *.&.m &.N m H ( p.p.p.p.p.y.p.p.p.",
"M.l.d.p.) D &.*.*.*.*.%.G G &.&.*.z G &.*.k p.p.p.p.p.p.p.p.y.p.",
"C.l.d.p.t.R J *.*.*.*.*.H *.*.&.l H G H k 0.p.p.p.p.p.p.p.p.p.p.",
"A.c.d.p.p.r.f f H *.*.*.*.*.*.G *.&.z Q y.p.p.a.s.p.p.p.p.p.p.a.",
"D.c.g.p.p.p.p.p. .N *.*.*.*.*.*.*.H N 4.p.p.p.p.p.p.p.p.p.p.p.s.",
"H.m.g.a.p.p.y.y.7.N *.*.*.*.*.&.*.*.C p.p.p.p.p.p.p.p.p.p.p.p.s.",
"J.N.h.a.p.p.p.p.: p *.*.*.*.N H *.&.& p.p.y.p.p.p.- % t.p.y.p.d.",
"P.C.k.a.p.p.p.y.7.1 8 c H &.G &.N 6 P p.p.p.p.p.a.- . = p.p.p.d.",
"P.C.l.s.p.p.p.p.} 2 3 3 1 5 < < 2 3 K p.p.p.p.p.5.+ .   t.p.a.g.",
"P.M.h.a.p.p.p.p.T G i 5 2 3 7 4 9 6 n 7.p.p.p.p.0.. # . 5.p.p.d.",
"P.M.g.p.p.p.p.9.=.*.*.*.G c # j B &.*.U p.p.p.p.p.> # . 3.p.p.g.",
"P.M.g.p.p.y.p.T *.*.*.*.*.*.f z V *.*.H 7.p.y.p.p...# y 3.p.p.g.",
"H.m.g.p.p.p.4.H *.*.*.*.*.W i.>.m *.*.*._ p.p.p.p.[ *.*.9.p.p.d.",
"H.M.h.d.p.p.U H *.*.*.*.*., f.j.d *.*.*.M t.p.p.p./ *.*.7.p.p.d.",
"L.C.c.d.a.y.x N *.*.*.*.*.Y q.; %.*.*.*.&.R p.p.p.D *.H p.p.p.d.",
"Y.G.M.h.d.> &.%.V *.*.*.*.*.H *.*.*.*.*.*.&.` p.7.&.*.! p.p.d.g.",
"Q.I.S.c.h.Q *.*.z *.*.*.*.*.*.*.%.*.*.*.*.*.B 8.E *.*.{ d.d.h.c."
};
