/* XPM */
static char *fbe01829600d4b048c838dad755d44f04E0rXIS8pIAa1z20[] = {
/* columns rows colors chars-per-pixel */
"16 16 167 2 ",
"   c #6E4329",
".  c #654537",
"X  c #7F6C70",
"o  c #7E6D74",
"O  c #8B3E33",
"+  c #AA3623",
"@  c #AB3024",
"#  c #945D27",
"$  c #915F30",
"%  c #B24525",
"&  c #AA5324",
"*  c #B65126",
"=  c #B35926",
"-  c #9F6427",
";  c #927820",
":  c #AC6C2D",
">  c #BB6128",
",  c #A97224",
"<  c #B97628",
"1  c #BB7728",
"2  c #BE7929",
"3  c #B36B32",
"4  c #AC7333",
"5  c #BD7D36",
"6  c #C17C29",
"7  c #C27C2B",
"8  c #C47D2A",
"9  c #C57D2A",
"0  c #C77F2B",
"q  c #C67E2C",
"w  c #C67F2C",
"e  c #C17F32",
"r  c #924753",
"t  c #9B724B",
"y  c #866851",
"u  c #997053",
"i  c #917856",
"p  c #92715C",
"a  c #AB7E46",
"s  c #A1764D",
"d  c #A6784D",
"f  c #A4784F",
"g  c #AA7949",
"h  c #AC7A49",
"j  c #B57C41",
"k  c #AB7D51",
"l  c #AD7E51",
"z  c #AF7E50",
"x  c #967762",
"c  c #977967",
"v  c #9B7A65",
"b  c #9E7C64",
"n  c #8B6475",
"m  c #8E7773",
"M  c #977F75",
"N  c #947D77",
"B  c #987E72",
"V  c #A07E65",
"C  c #9E8423",
"Z  c #9F8723",
"A  c #BA8728",
"S  c #B88828",
"D  c #BB8829",
"F  c #A7A526",
"G  c #C6802A",
"H  c #C9802B",
"J  c #CA812B",
"K  c #CB812B",
"L  c #CC822C",
"P  c #CE852C",
"I  c #D0852D",
"U  c #D1852D",
"Y  c #D2862D",
"T  c #D3862D",
"R  c #D4872D",
"E  c #D5882E",
"W  c #D6882E",
"Q  c #D7892E",
"!  c #C88537",
"~  c #C2823D",
"^  c #C98538",
"/  c #D08630",
"(  c #BC8142",
")  c #B28051",
"_  c #BB8B53",
"`  c #9D847C",
"'  c #A1816E",
"]  c #A18273",
"[  c #A08374",
"{  c #A78774",
"}  c #867987",
"|  c #8B7D86",
" . c #877F90",
".. c #877F93",
"X. c #8E818D",
"o. c #938287",
"O. c #90838A",
"+. c #89908F",
"@. c #8E8496",
"#. c #8F879B",
"$. c #8F879C",
"%. c #938795",
"&. c #988991",
"*. c #91899E",
"=. c #928AA0",
"-. c #938BA0",
";. c #938BA1",
":. c #938CA1",
">. c #948CA1",
",. c #978FA1",
"<. c #948CA2",
"1. c #958DA2",
"2. c #958DA3",
"3. c #968EA3",
"4. c #968FA4",
"5. c #978FA4",
"6. c #9890A5",
"7. c #9992A6",
"8. c #9992A7",
"9. c #9A92A7",
"0. c #9A93A7",
"q. c #9B93A7",
"w. c #9E96A6",
"e. c #9B93A8",
"r. c #9C94A9",
"t. c #9C95A9",
"y. c #9D96AA",
"u. c #9E97AA",
"i. c #A099AC",
"p. c #A29BAE",
"a. c #A49DAF",
"s. c #A59EB1",
"d. c #BEB0AF",
"f. c #A8A2B3",
"g. c #ADA7B8",
"h. c #AEA8B8",
"j. c #B5B0BF",
"k. c #B6B0BF",
"l. c #D2B18F",
"z. c #B6B1C0",
"x. c #B8B3C1",
"c. c #BBB6C4",
"v. c #BCB7C4",
"b. c #BDB8C5",
"n. c #BFBAC7",
"m. c #C0BBC8",
"M. c #C2BECA",
"N. c #C4BFCB",
"B. c #C8C4CF",
"V. c #CCC9D3",
"C. c #D1CDD7",
"Z. c #D1CED7",
"A. c #D2CED8",
"S. c #D5D2DB",
"D. c #D6D2DB",
"F. c #D6D3DB",
"G. c #D7D4DC",
"H. c #D8D5DD",
"J. c #D9D6DE",
"K. c #DAD7DF",
"L. c #E9E8EC",
"P. c #EFEEF1",
"I. c #F0EFF2",
"U. c #F1F0F2",
"Y. c #F1F0F3",
"T. c #F6F6F7",
"R. c #FEFEFE",
/* pixels */
"R.I.G.V.A.G.S.l.d.z.z.m.D.L.U.T.",
"U.b.w.{ e.5.&.Q ^ %.;.3.e.f.m.S.",
"D.t.' L [ ;.` T Q l ;.;.;.5.t.z.",
"B.3.l e ~ p $ # - 2 | ;.;.;.3.p.",
"M.3.h _ Q Q q 6 Q Q g ,.6.;.;.5.",
"v.9.s J Q T 6 P Q D ; M 5.;.;.;.",
"h.9.y Q < Z F A Q A C b ;.;.;.3.",
"g.3.b P Q G , T 3 8 2 N 3.;.;.;.",
"k.6.p ! Q Q J T < H f <.5.;.;.;.",
"B.i.*.c j Q Q T T t ;.;.<.;.;.5.",
"C.i.<.;.u Q Q J Q m ;.;.@.} ;.5.",
"J.i.<.;.r @ * & + n ;.5.X . ;.e.",
"J.w.;.#.5 > % O = d <.<.o   ..e.",
"C.w.;.v Q Q ^ i 7 T X.;.o.: ..e.",
"D.a.;.4 Q Q a +.G Q l ;.[ P #.7.",
"P.v.O.R 7 Q Q T R Q Q B z ( 7.s."
};
